<svg width="43" height="34" viewBox="0 0 43 34" fill="none" xmlns="http://www.w3.org/2000/svg">
    <path fill-rule="evenodd" clip-rule="evenodd" d="M14.218 32.1181L19.4561 22.3404C20.8052 19.822 23.4305 18.2501 26.2875 18.2501H30.4451H31.4451V17.2501V2.75009V1.75009H30.4451H6.50104C4.8923 1.75009 3.52563 2.92704 3.28699 4.51798L1.78699 14.518C1.49225 16.4829 3.01409 18.2501 5.00104 18.2501H6.71125C10.5478 18.2501 13.0887 22.2311 11.473 25.7109L8.96682 31.1089C8.71972 31.6411 9.10833 32.25 9.6951 32.25H13.9976C14.0898 32.25 14.1745 32.1993 14.218 32.1181ZM9.6951 34C7.82948 34 6.59391 32.0641 7.37955 30.372L9.88577 24.974C10.9629 22.6541 9.26895 20.0001 6.71125 20.0001H5.00104C1.94419 20.0001 -0.397099 17.2814 0.0563545 14.2584L1.55635 4.25839C1.92349 1.81079 4.02605 9.15527e-05 6.50104 9.15527e-05H32.1951C32.7474 9.15527e-05 33.1951 0.447807 33.1951 1.00009V19.0001C33.1951 19.5524 32.7474 20.0001 32.1951 20.0001H26.2875C24.0757 20.0001 22.0432 21.217 20.9987 23.1667L15.7606 32.9444C15.4124 33.5944 14.7349 34 13.9976 34H9.6951ZM40.6951 18.5H36.6951V1.5H40.6951L40.6951 18.5ZM42.1951 18.5C42.1951 19.3284 41.5235 20 40.6951 20H36.6951C35.8667 20 35.1951 19.3284 35.1951 18.5V1.5C35.1951 0.67157 35.8667 0 36.6951 0H40.6951C41.5235 0 42.1951 0.671574 42.1951 1.5V18.5Z" fill="black"/>
</svg>
