<svg width="42" height="34" viewBox="0 0 42 34" fill="none" xmlns="http://www.w3.org/2000/svg">
    <path fill-rule="evenodd" clip-rule="evenodd" d="M19.456 22.3404L14.218 32.1181C14.1744 32.1993 14.0898 32.25 13.9976 32.25H9.69507C9.1083 32.25 8.71969 31.6411 8.96679 31.1089L11.473 25.7109C13.0886 22.2311 10.5478 18.2501 6.71122 18.2501H5.00101C3.01406 18.2501 1.49222 16.4829 1.78696 14.518L3.28696 4.51798C3.5256 2.92704 4.89227 1.75009 6.50101 1.75009H30.4451H31.4451V2.75009V17.2501V18.2501H30.4451H26.2875C23.4305 18.2501 20.8052 19.822 19.456 22.3404ZM7.37952 30.372C6.59388 32.0641 7.82944 34 9.69507 34H13.9976C14.7349 34 15.4124 33.5944 15.7605 32.9444L20.9986 23.1667C22.0431 21.217 24.0756 20.0001 26.2875 20.0001H32.1951C32.7474 20.0001 33.1951 19.5524 33.1951 19.0001V1.00009C33.1951 0.447807 32.7474 9.15527e-05 32.1951 9.15527e-05H6.50101C4.02602 9.15527e-05 1.92346 1.81079 1.55632 4.25839L0.056324 14.2584C-0.397129 17.2814 1.94416 20.0001 5.00101 20.0001H6.71122C9.26892 20.0001 10.9628 22.6541 9.88574 24.974L7.37952 30.372Z" fill="black"/>
    <path fill-rule="evenodd" clip-rule="evenodd" d="M14.5 32.3296L19.9684 22.7122C21.3768 20.235 23.6332 18.2296 26.6158 18.2296L31.3567 18.2296V1.76232L6.50005 1.76231C4.82059 1.76231 3.39385 3.15768 3.14472 4.72254L1.82366 14.5586C1.51596 16.4914 3.42577 18.5 5.50005 18.5H6.50005C10.5052 18.5 12.8367 22.1454 11.1501 25.5681L8.5337 30.8776C8.27574 31.4011 8.68144 32.3296 9.294 32.3296H13.7856C13.8819 32.3296 14.4546 32.4095 14.5 32.3296Z" fill="#D70336" fill-opacity="0.76"/>
    <rect x="35.75" y="0.75" width="5.5" height="18.5" rx="0.75" fill="#FF001F" fill-opacity="0.29" stroke="black" stroke-width="1.5"/>
</svg>
