<svg width="43" height="34" viewBox="0 0 43 34" fill="none" xmlns="http://www.w3.org/2000/svg">
<mask id="path-1-inside-1_137_289" fill="white">
<path fill-rule="evenodd" clip-rule="evenodd" d="M27.9771 1.88194L22.739 11.6596C21.3899 14.178 18.7646 15.7499 15.9076 15.7499H10.75V32.2499H35.6941C37.3028 32.2499 38.6695 31.073 38.9081 29.482L40.4081 19.482C40.7029 17.5171 39.181 15.7499 37.1941 15.7499H35.4839C31.6473 15.7499 29.1064 11.7689 30.7221 8.28906L33.2283 2.89108C33.4754 2.35887 33.0868 1.75 32.5 1.75H28.1975C28.1053 1.75 28.0206 1.80071 27.9771 1.88194ZM32.5 0C34.3656 0 35.6012 1.9359 34.8155 3.62803L32.3093 9.02601C31.2322 11.3459 32.9261 13.9999 35.4839 13.9999H37.1941C40.2509 13.9999 42.5922 16.7186 42.1387 19.7416L40.6387 29.7416C40.2716 32.1892 38.169 33.9999 35.6941 33.9999H10C9.44772 33.9999 9 33.5522 9 32.9999V14.9999C9 14.4476 9.44772 13.9999 10 13.9999H15.9076C18.1194 13.9999 20.1519 12.783 21.1964 10.8333L26.4345 1.05555C26.7827 0.405645 27.4602 0 28.1975 0H32.5Z"/>
</mask>
<path d="M22.739 11.6596L23.6205 12.1319L23.6205 12.1319L22.739 11.6596ZM27.9771 1.88194L28.8586 2.35417L28.8586 2.35416L27.9771 1.88194ZM10.75 15.7499V14.7499H9.75V15.7499H10.75ZM10.75 32.2499H9.75V33.2499H10.75V32.2499ZM38.9081 29.482L39.897 29.6304L39.897 29.6304L38.9081 29.482ZM40.4081 19.482L39.4192 19.3337L39.4192 19.3337L40.4081 19.482ZM30.7221 8.28906L31.6291 8.71018L30.7221 8.28906ZM33.2283 2.89108L32.3213 2.46997L32.3213 2.46997L33.2283 2.89108ZM34.8155 3.62803L35.7226 4.04915L35.7226 4.04915L34.8155 3.62803ZM32.3093 9.02601L33.2163 9.44713L33.2163 9.44713L32.3093 9.02601ZM42.1387 19.7416L41.1498 19.5933L41.1498 19.5933L42.1387 19.7416ZM40.6387 29.7416L39.6498 29.5933L39.6498 29.5933L40.6387 29.7416ZM21.1964 10.8333L20.315 10.361L21.1964 10.8333ZM26.4345 1.05555L25.553 0.583329L25.553 0.583329L26.4345 1.05555ZM23.6205 12.1319L28.8586 2.35417L27.0956 1.40972L21.8575 11.1874L23.6205 12.1319ZM15.9076 16.7499C19.1332 16.7499 22.0973 14.9752 23.6205 12.1319L21.8575 11.1874C20.6825 13.3809 18.3959 14.7499 15.9076 14.7499V16.7499ZM10.75 16.7499H15.9076V14.7499H10.75V16.7499ZM11.75 32.2499V15.7499H9.75V32.2499H11.75ZM35.6941 31.2499H10.75V33.2499H35.6941V31.2499ZM37.9192 29.3337C37.754 30.4351 36.8078 31.2499 35.6941 31.2499V33.2499C37.7978 33.2499 39.585 31.7108 39.897 29.6304L37.9192 29.3337ZM39.4192 19.3337L37.9192 29.3337L39.897 29.6304L41.397 19.6304L39.4192 19.3337ZM37.1941 16.7499C38.5696 16.7499 39.6232 17.9733 39.4192 19.3337L41.397 19.6304C41.7825 17.0608 39.7924 14.7499 37.1941 14.7499V16.7499ZM35.4839 16.7499H37.1941V14.7499H35.4839V16.7499ZM29.8151 7.86795C27.8917 12.0106 30.9165 16.7499 35.4839 16.7499V14.7499C32.3781 14.7499 30.3212 11.5271 31.6291 8.71018L29.8151 7.86795ZM32.3213 2.46997L29.8151 7.86795L31.6291 8.71018L34.1353 3.3122L32.3213 2.46997ZM32.5 2.75C32.356 2.75 32.2606 2.60058 32.3213 2.46997L34.1353 3.3122C34.6901 2.11717 33.8175 0.75 32.5 0.75V2.75ZM28.1975 2.75H32.5V0.75H28.1975V2.75ZM28.8586 2.35416C28.728 2.59789 28.474 2.75 28.1975 2.75V0.75C27.7367 0.75 27.3132 1.00352 27.0956 1.40973L28.8586 2.35416ZM35.7226 4.04915C36.8159 1.69419 35.0964 -1 32.5 -1V1C33.6349 1 34.3864 2.1776 33.9085 3.20692L35.7226 4.04915ZM33.2163 9.44713L35.7226 4.04915L33.9085 3.20692L31.4023 8.6049L33.2163 9.44713ZM35.4839 12.9999C33.6569 12.9999 32.447 11.1042 33.2163 9.44713L31.4023 8.6049C30.0175 11.5876 32.1954 14.9999 35.4839 14.9999V12.9999ZM37.1941 12.9999H35.4839V14.9999H37.1941V12.9999ZM43.1277 19.89C43.6718 16.2623 40.8623 12.9999 37.1941 12.9999V14.9999C39.6395 14.9999 41.5126 17.1749 41.1498 19.5933L43.1277 19.89ZM41.6277 29.89L43.1277 19.8899L41.1498 19.5933L39.6498 29.5933L41.6277 29.89ZM35.6941 34.9999C38.664 34.9999 41.1871 32.8271 41.6277 29.89L39.6498 29.5933C39.3561 31.5514 37.674 32.9999 35.6941 32.9999V34.9999ZM10 34.9999H35.6941V32.9999H10V34.9999ZM8 32.9999C8 34.1045 8.89543 34.9999 10 34.9999V32.9999H10H8ZM8 14.9999V32.9999H10V14.9999H8ZM10 12.9999C8.89543 12.9999 8 13.8953 8 14.9999H10V12.9999ZM15.9076 12.9999H10V14.9999H15.9076V12.9999ZM20.315 10.361C19.4445 11.9858 17.7508 12.9999 15.9076 12.9999V14.9999C18.4881 14.9999 20.8593 13.5802 22.0779 11.3055L20.315 10.361ZM25.553 0.583329L20.315 10.361L22.0779 11.3055L27.316 1.52778L25.553 0.583329ZM28.1975 -1C27.0915 -1 26.0753 -0.391533 25.553 0.583329L27.316 1.52778C27.4901 1.20282 27.8288 1 28.1975 1V-1ZM32.5 -1H28.1975V1H32.5V-1Z" fill="black" mask="url(#path-1-inside-1_137_289)"/>
<rect x="0.75" y="14.75" width="5.5" height="18.5" rx="0.75" fill="#00C2FF" fill-opacity="0.12" stroke="black" stroke-width="1.5"/>
<path fill-rule="evenodd" clip-rule="evenodd" d="M28 1.81519L22.7081 11.4326C21.345 13.9097 19.097 15.7704 16.2106 15.7704H10.769V32.1848H36.2005C37.8258 32.1848 39.2065 30.8423 39.4476 29.2775L40.963 19.4414C41.2608 17.5086 39.7233 15.7704 37.7159 15.7704H35.9881C32.1121 15.7704 29.5451 11.8546 31.1774 8.43188L33.7094 3.12237C33.959 2.59889 33.5664 1.81518 32.9736 1.81518H28.6268C28.5337 1.81518 28.044 1.73528 28 1.81519Z" fill="#0357D7"/>
</svg>
