<svg width="77" height="49" viewBox="0 0 77 49" fill="none" xmlns="http://www.w3.org/2000/svg">
    <rect x="13.5" y="0.5" width="50" height="48" rx="10.5" stroke="#08BEE7"/>
    <mask id="path-2-outside-1_147_258" maskUnits="userSpaceOnUse" x="14" y="18" width="49" height="10" fill="black">
        <rect fill="white" x="14" y="18" width="49" height="10"/>
        <path d="M15.0457 19.64H16.4957V25.6H19.9557V27H15.0457V19.64ZM25.362 19.64H29.482V21.04H26.812V22.63H29.072V24.03H26.812V25.6H29.622V27H25.362V19.64ZM25.512 21.35C25.4986 21.4233 25.4753 21.51 25.442 21.61C25.4153 21.71 25.402 21.76 25.402 21.76L22.232 27H20.552L25.362 19.64L25.512 21.35ZM23.222 24.24H25.532V25.39H22.772L23.222 24.24ZM31.1199 27V19.64H33.3199C34.0599 19.64 34.6899 19.75 35.2099 19.97C35.7299 20.19 36.1466 20.4833 36.4599 20.85C36.7799 21.2167 37.0133 21.6267 37.1599 22.08C37.3066 22.5333 37.3799 22.99 37.3799 23.45C37.3799 23.9967 37.2799 24.49 37.0799 24.93C36.8866 25.3633 36.6199 25.7367 36.2799 26.05C35.9399 26.3567 35.5466 26.5933 35.0999 26.76C34.6533 26.92 34.1799 27 33.6799 27H31.1199ZM32.5699 25.6H33.4299C33.7966 25.6 34.1299 25.5533 34.4299 25.46C34.7299 25.36 34.9866 25.2167 35.1999 25.03C35.4199 24.8433 35.5866 24.61 35.6999 24.33C35.8199 24.0433 35.8799 23.7167 35.8799 23.35C35.8799 22.87 35.7999 22.48 35.6399 22.18C35.4866 21.8733 35.2933 21.6367 35.0599 21.47C34.8333 21.3033 34.5999 21.19 34.3599 21.13C34.1199 21.0633 33.9166 21.03 33.7499 21.03H32.5699V25.6ZM42.7648 21.42C42.4848 21.2667 42.1981 21.14 41.9048 21.04C41.6181 20.94 41.3481 20.89 41.0948 20.89C40.7814 20.89 40.5348 20.9533 40.3548 21.08C40.1748 21.2067 40.0848 21.3967 40.0848 21.65C40.0848 21.8233 40.1514 21.98 40.2848 22.12C40.4248 22.2533 40.6014 22.3733 40.8148 22.48C41.0348 22.5867 41.2614 22.6833 41.4948 22.77C41.7081 22.85 41.9181 22.9467 42.1248 23.06C42.3381 23.1667 42.5281 23.3033 42.6948 23.47C42.8614 23.63 42.9948 23.8333 43.0948 24.08C43.1948 24.32 43.2448 24.6167 43.2448 24.97C43.2448 25.3433 43.1481 25.69 42.9548 26.01C42.7614 26.33 42.4781 26.59 42.1048 26.79C41.7314 26.9833 41.2714 27.08 40.7248 27.08C40.4448 27.08 40.1581 27.0533 39.8648 27C39.5781 26.94 39.2948 26.8533 39.0148 26.74C38.7348 26.62 38.4648 26.47 38.2048 26.29L38.8448 25.16C39.0181 25.2867 39.2048 25.4 39.4048 25.5C39.6114 25.5933 39.8181 25.6667 40.0248 25.72C40.2314 25.7733 40.4214 25.8 40.5948 25.8C40.7681 25.8 40.9414 25.7767 41.1148 25.73C41.2948 25.6767 41.4414 25.59 41.5548 25.47C41.6748 25.35 41.7348 25.1833 41.7348 24.97C41.7348 24.8233 41.6848 24.69 41.5848 24.57C41.4914 24.45 41.3614 24.34 41.1948 24.24C41.0348 24.14 40.8581 24.0533 40.6648 23.98C40.4381 23.8933 40.2048 23.7933 39.9648 23.68C39.7248 23.5667 39.4981 23.43 39.2848 23.27C39.0781 23.1033 38.9081 22.9 38.7748 22.66C38.6481 22.4133 38.5848 22.1133 38.5848 21.76C38.5848 21.3333 38.6781 20.9633 38.8648 20.65C39.0581 20.3367 39.3281 20.09 39.6748 19.91C40.0214 19.7233 40.4214 19.62 40.8748 19.6C41.4681 19.6 41.9481 19.67 42.3148 19.81C42.6881 19.95 43.0214 20.1167 43.3148 20.31L42.7648 21.42ZM44.2548 24.1H46.1348V25.32H44.2548V24.1ZM53.6915 26.26C53.6048 26.3533 53.4682 26.45 53.2815 26.55C53.0948 26.6433 52.8782 26.73 52.6315 26.81C52.3915 26.89 52.1448 26.9533 51.8915 27C51.6382 27.0533 51.3982 27.08 51.1715 27.08C50.5715 27.08 50.0315 26.9933 49.5515 26.82C49.0715 26.64 48.6615 26.3933 48.3215 26.08C47.9815 25.76 47.7215 25.3833 47.5415 24.95C47.3615 24.5167 47.2715 24.0433 47.2715 23.53C47.2715 22.8567 47.3715 22.2733 47.5715 21.78C47.7782 21.28 48.0548 20.8667 48.4015 20.54C48.7548 20.2067 49.1582 19.96 49.6115 19.8C50.0715 19.64 50.5515 19.56 51.0515 19.56C51.5248 19.56 51.9582 19.6133 52.3515 19.72C52.7448 19.82 53.0782 19.9467 53.3515 20.1L52.8815 21.45C52.7615 21.3833 52.6015 21.3167 52.4015 21.25C52.2015 21.1833 51.9982 21.13 51.7915 21.09C51.5848 21.0433 51.4015 21.02 51.2415 21.02C50.8415 21.02 50.4882 21.07 50.1815 21.17C49.8748 21.27 49.6148 21.42 49.4015 21.62C49.1948 21.82 49.0382 22.07 48.9315 22.37C48.8248 22.6633 48.7715 23.0067 48.7715 23.4C48.7715 23.7467 48.8315 24.06 48.9515 24.34C49.0715 24.6133 49.2382 24.8467 49.4515 25.04C49.6715 25.2333 49.9282 25.38 50.2215 25.48C50.5215 25.58 50.8515 25.63 51.2115 25.63C51.4182 25.63 51.6082 25.6167 51.7815 25.59C51.9548 25.5567 52.1015 25.5067 52.2215 25.44V24.55H50.9515V23.15H53.6915V26.26ZM54.8887 23.33C54.8887 22.8233 54.9853 22.3433 55.1787 21.89C55.372 21.4367 55.6387 21.0367 55.9787 20.69C56.3253 20.3367 56.7253 20.06 57.1787 19.86C57.632 19.66 58.1187 19.56 58.6387 19.56C59.152 19.56 59.6353 19.66 60.0887 19.86C60.542 20.06 60.942 20.3367 61.2887 20.69C61.642 21.0367 61.9153 21.4367 62.1087 21.89C62.3087 22.3433 62.4087 22.8233 62.4087 23.33C62.4087 23.85 62.3087 24.3367 62.1087 24.79C61.9153 25.2433 61.642 25.6433 61.2887 25.99C60.942 26.33 60.542 26.5967 60.0887 26.79C59.6353 26.9833 59.152 27.08 58.6387 27.08C58.1187 27.08 57.632 26.9833 57.1787 26.79C56.7253 26.5967 56.3253 26.33 55.9787 25.99C55.6387 25.6433 55.372 25.2433 55.1787 24.79C54.9853 24.3367 54.8887 23.85 54.8887 23.33ZM56.3887 23.33C56.3887 23.6567 56.4453 23.9633 56.5587 24.25C56.6787 24.53 56.842 24.78 57.0487 25C57.262 25.2133 57.5053 25.38 57.7787 25.5C58.0587 25.62 58.362 25.68 58.6887 25.68C59.002 25.68 59.292 25.62 59.5587 25.5C59.832 25.38 60.0687 25.2133 60.2687 25C60.4687 24.78 60.6253 24.53 60.7387 24.25C60.852 23.9633 60.9087 23.6567 60.9087 23.33C60.9087 22.9967 60.8487 22.6867 60.7287 22.4C60.6153 22.1133 60.4553 21.8633 60.2487 21.65C60.0487 21.43 59.812 21.26 59.5387 21.14C59.2653 21.02 58.9687 20.96 58.6487 20.96C58.3287 20.96 58.032 21.02 57.7587 21.14C57.4853 21.26 57.2453 21.43 57.0387 21.65C56.832 21.8633 56.672 22.1133 56.5587 22.4C56.4453 22.6867 56.3887 22.9967 56.3887 23.33Z"/>
    </mask>
    <path d="M15.0457 19.64H16.4957V25.6H19.9557V27H15.0457V19.64ZM25.362 19.64H29.482V21.04H26.812V22.63H29.072V24.03H26.812V25.6H29.622V27H25.362V19.64ZM25.512 21.35C25.4986 21.4233 25.4753 21.51 25.442 21.61C25.4153 21.71 25.402 21.76 25.402 21.76L22.232 27H20.552L25.362 19.64L25.512 21.35ZM23.222 24.24H25.532V25.39H22.772L23.222 24.24ZM31.1199 27V19.64H33.3199C34.0599 19.64 34.6899 19.75 35.2099 19.97C35.7299 20.19 36.1466 20.4833 36.4599 20.85C36.7799 21.2167 37.0133 21.6267 37.1599 22.08C37.3066 22.5333 37.3799 22.99 37.3799 23.45C37.3799 23.9967 37.2799 24.49 37.0799 24.93C36.8866 25.3633 36.6199 25.7367 36.2799 26.05C35.9399 26.3567 35.5466 26.5933 35.0999 26.76C34.6533 26.92 34.1799 27 33.6799 27H31.1199ZM32.5699 25.6H33.4299C33.7966 25.6 34.1299 25.5533 34.4299 25.46C34.7299 25.36 34.9866 25.2167 35.1999 25.03C35.4199 24.8433 35.5866 24.61 35.6999 24.33C35.8199 24.0433 35.8799 23.7167 35.8799 23.35C35.8799 22.87 35.7999 22.48 35.6399 22.18C35.4866 21.8733 35.2933 21.6367 35.0599 21.47C34.8333 21.3033 34.5999 21.19 34.3599 21.13C34.1199 21.0633 33.9166 21.03 33.7499 21.03H32.5699V25.6ZM42.7648 21.42C42.4848 21.2667 42.1981 21.14 41.9048 21.04C41.6181 20.94 41.3481 20.89 41.0948 20.89C40.7814 20.89 40.5348 20.9533 40.3548 21.08C40.1748 21.2067 40.0848 21.3967 40.0848 21.65C40.0848 21.8233 40.1514 21.98 40.2848 22.12C40.4248 22.2533 40.6014 22.3733 40.8148 22.48C41.0348 22.5867 41.2614 22.6833 41.4948 22.77C41.7081 22.85 41.9181 22.9467 42.1248 23.06C42.3381 23.1667 42.5281 23.3033 42.6948 23.47C42.8614 23.63 42.9948 23.8333 43.0948 24.08C43.1948 24.32 43.2448 24.6167 43.2448 24.97C43.2448 25.3433 43.1481 25.69 42.9548 26.01C42.7614 26.33 42.4781 26.59 42.1048 26.79C41.7314 26.9833 41.2714 27.08 40.7248 27.08C40.4448 27.08 40.1581 27.0533 39.8648 27C39.5781 26.94 39.2948 26.8533 39.0148 26.74C38.7348 26.62 38.4648 26.47 38.2048 26.29L38.8448 25.16C39.0181 25.2867 39.2048 25.4 39.4048 25.5C39.6114 25.5933 39.8181 25.6667 40.0248 25.72C40.2314 25.7733 40.4214 25.8 40.5948 25.8C40.7681 25.8 40.9414 25.7767 41.1148 25.73C41.2948 25.6767 41.4414 25.59 41.5548 25.47C41.6748 25.35 41.7348 25.1833 41.7348 24.97C41.7348 24.8233 41.6848 24.69 41.5848 24.57C41.4914 24.45 41.3614 24.34 41.1948 24.24C41.0348 24.14 40.8581 24.0533 40.6648 23.98C40.4381 23.8933 40.2048 23.7933 39.9648 23.68C39.7248 23.5667 39.4981 23.43 39.2848 23.27C39.0781 23.1033 38.9081 22.9 38.7748 22.66C38.6481 22.4133 38.5848 22.1133 38.5848 21.76C38.5848 21.3333 38.6781 20.9633 38.8648 20.65C39.0581 20.3367 39.3281 20.09 39.6748 19.91C40.0214 19.7233 40.4214 19.62 40.8748 19.6C41.4681 19.6 41.9481 19.67 42.3148 19.81C42.6881 19.95 43.0214 20.1167 43.3148 20.31L42.7648 21.42ZM44.2548 24.1H46.1348V25.32H44.2548V24.1ZM53.6915 26.26C53.6048 26.3533 53.4682 26.45 53.2815 26.55C53.0948 26.6433 52.8782 26.73 52.6315 26.81C52.3915 26.89 52.1448 26.9533 51.8915 27C51.6382 27.0533 51.3982 27.08 51.1715 27.08C50.5715 27.08 50.0315 26.9933 49.5515 26.82C49.0715 26.64 48.6615 26.3933 48.3215 26.08C47.9815 25.76 47.7215 25.3833 47.5415 24.95C47.3615 24.5167 47.2715 24.0433 47.2715 23.53C47.2715 22.8567 47.3715 22.2733 47.5715 21.78C47.7782 21.28 48.0548 20.8667 48.4015 20.54C48.7548 20.2067 49.1582 19.96 49.6115 19.8C50.0715 19.64 50.5515 19.56 51.0515 19.56C51.5248 19.56 51.9582 19.6133 52.3515 19.72C52.7448 19.82 53.0782 19.9467 53.3515 20.1L52.8815 21.45C52.7615 21.3833 52.6015 21.3167 52.4015 21.25C52.2015 21.1833 51.9982 21.13 51.7915 21.09C51.5848 21.0433 51.4015 21.02 51.2415 21.02C50.8415 21.02 50.4882 21.07 50.1815 21.17C49.8748 21.27 49.6148 21.42 49.4015 21.62C49.1948 21.82 49.0382 22.07 48.9315 22.37C48.8248 22.6633 48.7715 23.0067 48.7715 23.4C48.7715 23.7467 48.8315 24.06 48.9515 24.34C49.0715 24.6133 49.2382 24.8467 49.4515 25.04C49.6715 25.2333 49.9282 25.38 50.2215 25.48C50.5215 25.58 50.8515 25.63 51.2115 25.63C51.4182 25.63 51.6082 25.6167 51.7815 25.59C51.9548 25.5567 52.1015 25.5067 52.2215 25.44V24.55H50.9515V23.15H53.6915V26.26ZM54.8887 23.33C54.8887 22.8233 54.9853 22.3433 55.1787 21.89C55.372 21.4367 55.6387 21.0367 55.9787 20.69C56.3253 20.3367 56.7253 20.06 57.1787 19.86C57.632 19.66 58.1187 19.56 58.6387 19.56C59.152 19.56 59.6353 19.66 60.0887 19.86C60.542 20.06 60.942 20.3367 61.2887 20.69C61.642 21.0367 61.9153 21.4367 62.1087 21.89C62.3087 22.3433 62.4087 22.8233 62.4087 23.33C62.4087 23.85 62.3087 24.3367 62.1087 24.79C61.9153 25.2433 61.642 25.6433 61.2887 25.99C60.942 26.33 60.542 26.5967 60.0887 26.79C59.6353 26.9833 59.152 27.08 58.6387 27.08C58.1187 27.08 57.632 26.9833 57.1787 26.79C56.7253 26.5967 56.3253 26.33 55.9787 25.99C55.6387 25.6433 55.372 25.2433 55.1787 24.79C54.9853 24.3367 54.8887 23.85 54.8887 23.33ZM56.3887 23.33C56.3887 23.6567 56.4453 23.9633 56.5587 24.25C56.6787 24.53 56.842 24.78 57.0487 25C57.262 25.2133 57.5053 25.38 57.7787 25.5C58.0587 25.62 58.362 25.68 58.6887 25.68C59.002 25.68 59.292 25.62 59.5587 25.5C59.832 25.38 60.0687 25.2133 60.2687 25C60.4687 24.78 60.6253 24.53 60.7387 24.25C60.852 23.9633 60.9087 23.6567 60.9087 23.33C60.9087 22.9967 60.8487 22.6867 60.7287 22.4C60.6153 22.1133 60.4553 21.8633 60.2487 21.65C60.0487 21.43 59.812 21.26 59.5387 21.14C59.2653 21.02 58.9687 20.96 58.6487 20.96C58.3287 20.96 58.032 21.02 57.7587 21.14C57.4853 21.26 57.2453 21.43 57.0387 21.65C56.832 21.8633 56.672 22.1133 56.5587 22.4C56.4453 22.6867 56.3887 22.9967 56.3887 23.33Z" fill="#3B8FA9"/>
    <path d="M15.0457 19.64V19.39H14.7957V19.64H15.0457ZM16.4957 19.64H16.7457V19.39H16.4957V19.64ZM16.4957 25.6H16.2457V25.85H16.4957V25.6ZM19.9557 25.6H20.2057V25.35H19.9557V25.6ZM19.9557 27V27.25H20.2057V27H19.9557ZM15.0457 27H14.7957V27.25H15.0457V27ZM15.0457 19.89H16.4957V19.39H15.0457V19.89ZM16.2457 19.64V25.6H16.7457V19.64H16.2457ZM16.4957 25.85H19.9557V25.35H16.4957V25.85ZM19.7057 25.6V27H20.2057V25.6H19.7057ZM19.9557 26.75H15.0457V27.25H19.9557V26.75ZM15.2957 27V19.64H14.7957V27H15.2957ZM25.362 19.64V19.39H25.112V19.64H25.362ZM29.482 19.64H29.732V19.39H29.482V19.64ZM29.482 21.04V21.29H29.732V21.04H29.482ZM26.812 21.04V20.79H26.562V21.04H26.812ZM26.812 22.63H26.562V22.88H26.812V22.63ZM29.072 22.63H29.322V22.38H29.072V22.63ZM29.072 24.03V24.28H29.322V24.03H29.072ZM26.812 24.03V23.78H26.562V24.03H26.812ZM26.812 25.6H26.562V25.85H26.812V25.6ZM29.622 25.6H29.872V25.35H29.622V25.6ZM29.622 27V27.25H29.872V27H29.622ZM25.362 27H25.112V27.25H25.362V27ZM25.512 21.35L25.7579 21.3947L25.7639 21.3616L25.761 21.3282L25.512 21.35ZM25.442 21.61L25.2048 21.5309L25.2024 21.5382L25.2004 21.5456L25.442 21.61ZM25.402 21.76L25.6159 21.8894L25.6343 21.8589L25.6435 21.8244L25.402 21.76ZM22.232 27V27.25H22.3729L22.4459 27.1294L22.232 27ZM20.552 27L20.3427 26.8632L20.0899 27.25H20.552V27ZM25.362 19.64L25.611 19.6182L25.5479 18.8985L25.1527 19.5032L25.362 19.64ZM23.222 24.24V23.99H23.0513L22.9891 24.1489L23.222 24.24ZM25.532 24.24H25.782V23.99H25.532V24.24ZM25.532 25.39V25.64H25.782V25.39H25.532ZM22.772 25.39L22.5391 25.2989L22.4057 25.64H22.772V25.39ZM25.362 19.89H29.482V19.39H25.362V19.89ZM29.232 19.64V21.04H29.732V19.64H29.232ZM29.482 20.79H26.812V21.29H29.482V20.79ZM26.562 21.04V22.63H27.062V21.04H26.562ZM26.812 22.88H29.072V22.38H26.812V22.88ZM28.822 22.63V24.03H29.322V22.63H28.822ZM29.072 23.78H26.812V24.28H29.072V23.78ZM26.562 24.03V25.6H27.062V24.03H26.562ZM26.812 25.85H29.622V25.35H26.812V25.85ZM29.372 25.6V27H29.872V25.6H29.372ZM29.622 26.75H25.362V27.25H29.622V26.75ZM25.612 27V19.64H25.112V27H25.612ZM25.266 21.3053C25.2554 21.3633 25.2358 21.438 25.2048 21.5309L25.6791 21.6891C25.7148 21.582 25.7418 21.4834 25.7579 21.3947L25.266 21.3053ZM25.2004 21.5456C25.1991 21.5506 25.1968 21.5591 25.1956 21.5637C25.1943 21.5684 25.1956 21.5635 25.1944 21.5681C25.1942 21.5689 25.1934 21.5716 25.1932 21.5724C25.1918 21.5777 25.1935 21.5713 25.1921 21.5766C25.1918 21.5779 25.1919 21.5774 25.1916 21.5787C25.1914 21.5794 25.1915 21.579 25.1913 21.5797C25.1909 21.5811 25.1914 21.5794 25.191 21.5807C25.191 21.5809 25.1909 21.5811 25.1909 21.5813C25.1908 21.5814 25.1908 21.5816 25.1907 21.5818C25.1905 21.5828 25.1907 21.5818 25.1905 21.5828C25.1899 21.5849 25.1905 21.5827 25.1899 21.5848C25.1891 21.588 25.1897 21.5856 25.1889 21.5888C25.1887 21.5894 25.1888 21.5892 25.1886 21.5898C25.1886 21.5899 25.1885 21.5901 25.1885 21.5903C25.1884 21.5904 25.1884 21.5906 25.1883 21.5908C25.1883 21.5909 25.1883 21.5911 25.1882 21.5913C25.1882 21.5914 25.1881 21.5916 25.1881 21.5917C25.1878 21.5928 25.1881 21.5917 25.1878 21.5927C25.1874 21.5943 25.1877 21.5931 25.1873 21.5946C25.1873 21.5948 25.1872 21.595 25.1872 21.5951C25.1871 21.5953 25.1871 21.5954 25.1871 21.5956C25.187 21.5959 25.1869 21.5963 25.1868 21.5966C25.1864 21.5979 25.1861 21.599 25.1858 21.6003C25.1857 21.6007 25.1857 21.6009 25.1855 21.6013C25.1855 21.6014 25.1855 21.6016 25.1854 21.6017C25.1854 21.6019 25.1853 21.602 25.1853 21.6022C25.1853 21.6023 25.1852 21.6025 25.1852 21.6027C25.1851 21.6028 25.1851 21.603 25.1851 21.6031C25.185 21.6033 25.1849 21.6039 25.1848 21.604C25.1848 21.6042 25.1847 21.6043 25.1847 21.6045C25.1846 21.6046 25.1846 21.6048 25.1846 21.6049C25.1843 21.6059 25.1846 21.6049 25.1843 21.6059C25.1842 21.6062 25.1839 21.6073 25.1838 21.6077C25.1837 21.6082 25.1838 21.608 25.1836 21.6086C25.1836 21.6087 25.1835 21.6088 25.1835 21.609C25.1834 21.6091 25.1834 21.6093 25.1834 21.6094C25.1827 21.612 25.1836 21.6087 25.1829 21.6112C25.1795 21.6241 25.1722 21.6514 25.1704 21.6581C25.1691 21.6631 25.1669 21.6711 25.166 21.6745C25.1654 21.6769 25.1631 21.6854 25.1629 21.6862C25.1617 21.6908 25.1629 21.6861 25.1618 21.6903C25.1614 21.6918 25.1618 21.6905 25.1614 21.6919C25.1612 21.6926 25.1614 21.692 25.1612 21.6926C25.1611 21.6928 25.1611 21.6931 25.161 21.6932C25.1608 21.694 25.1609 21.6936 25.1607 21.6943C25.1606 21.6949 25.1607 21.6944 25.1606 21.695C25.1605 21.6951 25.1605 21.6951 25.1605 21.6953C25.1605 21.6953 25.1605 21.6953 25.1605 21.6954C25.1605 21.6954 25.1604 21.6954 25.1604 21.6954C25.1604 21.6955 25.1604 21.6954 25.1604 21.6955C25.1604 21.6956 25.1604 21.6955 25.1604 21.6955C25.1604 21.6956 25.1604 21.6956 25.1604 21.6956C25.1604 21.6956 25.1604 21.6956 25.1604 21.6956C25.1604 21.6956 25.1604 21.6956 25.1604 21.6956C25.1604 21.6956 25.1604 21.6956 25.1604 21.6956C25.1604 21.6956 25.1604 21.6956 25.1604 21.6956C25.1604 21.6956 25.1604 21.6956 25.1604 21.6956C25.1604 21.6956 25.1604 21.6956 25.402 21.76C25.6435 21.8244 25.6435 21.8244 25.6435 21.8244C25.6435 21.8244 25.6435 21.8244 25.6435 21.8244C25.6435 21.8244 25.6435 21.8244 25.6435 21.8244C25.6435 21.8244 25.6435 21.8244 25.6435 21.8244C25.6435 21.8244 25.6435 21.8244 25.6435 21.8244C25.6435 21.8244 25.6435 21.8244 25.6435 21.8244C25.6435 21.8243 25.6435 21.8243 25.6435 21.8243C25.6435 21.8243 25.6435 21.8243 25.6435 21.8243C25.6435 21.8243 25.6435 21.8243 25.6436 21.8243C25.6436 21.8242 25.6436 21.824 25.6437 21.8238C25.6437 21.8237 25.644 21.8226 25.6441 21.8221C25.6444 21.8212 25.6446 21.8204 25.6449 21.8191C25.6451 21.8183 25.6452 21.8181 25.6454 21.8172C25.6455 21.8169 25.6459 21.8155 25.646 21.815C25.6472 21.8105 25.6506 21.7977 25.6535 21.7869C25.6546 21.783 25.6577 21.7713 25.6591 21.7658C25.6593 21.7652 25.6621 21.7545 25.6624 21.7535C25.6639 21.7478 25.6644 21.7462 25.666 21.74C25.6733 21.7129 25.6746 21.7078 25.6835 21.6744L25.2004 21.5456ZM25.188 21.6306L22.018 26.8706L22.4459 27.1294L25.6159 21.8894L25.188 21.6306ZM22.232 26.75H20.552V27.25H22.232V26.75ZM20.7612 27.1368L25.5712 19.7768L25.1527 19.5032L20.3427 26.8632L20.7612 27.1368ZM25.1129 19.6618L25.2629 21.3718L25.761 21.3282L25.611 19.6182L25.1129 19.6618ZM23.222 24.49H25.532V23.99H23.222V24.49ZM25.282 24.24V25.39H25.782V24.24H25.282ZM25.532 25.14H22.772V25.64H25.532V25.14ZM23.0048 25.4811L23.4548 24.3311L22.9891 24.1489L22.5391 25.2989L23.0048 25.4811ZM31.1199 27H30.8699V27.25H31.1199V27ZM31.1199 19.64V19.39H30.8699V19.64H31.1199ZM35.2099 19.97L35.1125 20.2002L35.1125 20.2002L35.2099 19.97ZM36.4599 20.85L36.2699 21.0124L36.2716 21.0144L36.4599 20.85ZM37.1599 22.08L37.3978 22.003L37.3978 22.003L37.1599 22.08ZM37.0799 24.93L36.8523 24.8265L36.8516 24.8281L37.0799 24.93ZM36.2799 26.05L36.4474 26.2357L36.4493 26.2338L36.2799 26.05ZM35.0999 26.76L35.1842 26.9954L35.1873 26.9942L35.0999 26.76ZM32.5699 25.6H32.3199V25.85H32.5699V25.6ZM34.4299 25.46L34.5042 25.6988L34.509 25.6972L34.4299 25.46ZM35.1999 25.03L35.0382 24.8394L35.0353 24.8419L35.1999 25.03ZM35.6999 24.33L35.4693 24.2335L35.4682 24.2362L35.6999 24.33ZM35.6399 22.18L35.4162 22.2918L35.4193 22.2976L35.6399 22.18ZM35.0599 21.47L34.9118 21.6714L34.9146 21.6734L35.0599 21.47ZM34.3599 21.13L34.293 21.371L34.2993 21.3725L34.3599 21.13ZM32.5699 21.03V20.78H32.3199V21.03H32.5699ZM31.3699 27V19.64H30.8699V27H31.3699ZM31.1199 19.89H33.3199V19.39H31.1199V19.89ZM33.3199 19.89C34.0364 19.89 34.6313 19.9967 35.1125 20.2002L35.3073 19.7398C34.7485 19.5033 34.0835 19.39 33.3199 19.39V19.89ZM35.1125 20.2002C35.6029 20.4077 35.9857 20.6799 36.2699 21.0124L36.65 20.6876C36.3075 20.2868 35.857 19.9723 35.3073 19.7398L35.1125 20.2002ZM36.2716 21.0144C36.5698 21.3561 36.786 21.7365 36.9221 22.157L37.3978 22.003C37.2405 21.5168 36.99 21.0772 36.6483 20.6856L36.2716 21.0144ZM36.9221 22.157C37.061 22.5863 37.1299 23.0171 37.1299 23.45H37.6299C37.6299 22.9629 37.5522 22.4803 37.3978 22.003L36.9221 22.157ZM37.1299 23.45C37.1299 23.9657 37.0357 24.423 36.8523 24.8265L37.3075 25.0335C37.5241 24.557 37.6299 24.0277 37.6299 23.45H37.1299ZM36.8516 24.8281C36.6718 25.2313 36.4248 25.5765 36.1105 25.8662L36.4493 26.2338C36.815 25.8969 37.1014 25.4954 37.3082 25.0319L36.8516 24.8281ZM36.1125 25.8644C35.7968 26.1491 35.4309 26.3697 35.0125 26.5258L35.1873 26.9942C35.6623 26.817 36.083 26.5643 36.4474 26.2356L36.1125 25.8644ZM35.0156 26.5246C34.5974 26.6744 34.1527 26.75 33.6799 26.75V27.25C34.2071 27.25 34.7091 27.1656 35.1842 26.9954L35.0156 26.5246ZM33.6799 26.75H31.1199V27.25H33.6799V26.75ZM32.5699 25.85H33.4299V25.35H32.5699V25.85ZM33.4299 25.85C33.8177 25.85 34.1765 25.8007 34.5042 25.6987L34.3557 25.2213C34.0833 25.306 33.7755 25.35 33.4299 25.35V25.85ZM34.509 25.6972C34.8368 25.5879 35.1235 25.4291 35.3645 25.2181L35.0353 24.8419C34.8497 25.0043 34.623 25.1321 34.3509 25.2228L34.509 25.6972ZM35.3617 25.2206C35.6139 25.0066 35.8039 24.7394 35.9317 24.4238L35.4682 24.2362C35.3693 24.4806 35.2259 24.6801 35.0382 24.8394L35.3617 25.2206ZM35.9305 24.4265C36.0654 24.1043 36.1299 23.7439 36.1299 23.35H35.6299C35.6299 23.6894 35.5744 23.9824 35.4693 24.2335L35.9305 24.4265ZM36.1299 23.35C36.1299 22.8449 36.0461 22.4104 35.8605 22.0624L35.4193 22.2976C35.5537 22.5496 35.6299 22.8951 35.6299 23.35H36.1299ZM35.8635 22.0682C35.6955 21.7322 35.4777 21.4612 35.2052 21.2666L34.9146 21.6734C35.1089 21.8122 35.2777 22.0145 35.4163 22.2918L35.8635 22.0682ZM35.208 21.2686C34.9587 21.0853 34.6961 20.9564 34.4206 20.8875L34.2993 21.3725C34.5037 21.4236 34.7078 21.5214 34.9118 21.6714L35.208 21.2686ZM34.4268 20.8891C34.1747 20.8191 33.9474 20.78 33.7499 20.78V21.28C33.8858 21.28 34.0652 21.3076 34.293 21.3709L34.4268 20.8891ZM33.7499 20.78H32.5699V21.28H33.7499V20.78ZM32.3199 21.03V25.6H32.8199V21.03H32.3199ZM42.7648 21.42L42.6447 21.6393L42.8731 21.7644L42.9888 21.531L42.7648 21.42ZM41.9048 21.04L41.8224 21.2761L41.8241 21.2766L41.9048 21.04ZM40.3548 21.08L40.2109 20.8755L40.2109 20.8755L40.3548 21.08ZM40.2848 22.12L40.1035 22.2926L40.1124 22.301L40.2848 22.12ZM40.8148 22.48L40.703 22.7036L40.7057 22.705L40.8148 22.48ZM41.4948 22.77L41.5825 22.5359L41.5818 22.5356L41.4948 22.77ZM42.1248 23.06L42.0045 23.2794L42.013 23.2836L42.1248 23.06ZM42.6948 23.47L42.518 23.6468L42.5216 23.6503L42.6948 23.47ZM43.0948 24.08L42.8631 24.1739L42.864 24.1762L43.0948 24.08ZM42.9548 26.01L43.1687 26.1393L43.1687 26.1393L42.9548 26.01ZM42.1048 26.79L42.2197 27.012L42.2228 27.0104L42.1048 26.79ZM39.8648 27L39.8135 27.2448L39.82 27.246L39.8648 27ZM39.0148 26.74L38.9163 26.9698L38.921 26.9717L39.0148 26.74ZM38.2048 26.29L37.9872 26.1668L37.8747 26.3655L38.0625 26.4955L38.2048 26.29ZM38.8448 25.16L38.9923 24.9582L38.7656 24.7925L38.6272 25.0368L38.8448 25.16ZM39.4048 25.5L39.2929 25.7238L39.3019 25.7278L39.4048 25.5ZM40.0248 25.72L40.0872 25.4779L40.0872 25.4779L40.0248 25.72ZM41.1148 25.73L41.1798 25.9715L41.1858 25.9697L41.1148 25.73ZM41.5548 25.47L41.3779 25.2932L41.373 25.2983L41.5548 25.47ZM41.5848 24.57L41.3873 24.7236L41.3927 24.73L41.5848 24.57ZM41.1948 24.24L41.0622 24.452L41.0661 24.4544L41.1948 24.24ZM40.6648 23.98L40.5755 24.2135L40.5761 24.2137L40.6648 23.98ZM39.9648 23.68L39.858 23.9061L39.858 23.9061L39.9648 23.68ZM39.2848 23.27L39.1277 23.4647L39.1348 23.47L39.2848 23.27ZM38.7748 22.66L38.5523 22.7743L38.5562 22.7814L38.7748 22.66ZM38.8648 20.65L38.652 20.5187L38.65 20.522L38.8648 20.65ZM39.6748 19.91L39.79 20.1319L39.7933 20.1301L39.6748 19.91ZM40.8748 19.6V19.3498L40.8637 19.3502L40.8748 19.6ZM42.3148 19.81L42.2256 20.0436L42.227 20.0441L42.3148 19.81ZM43.3148 20.31L43.5388 20.421L43.6369 20.2229L43.4523 20.1013L43.3148 20.31ZM42.8848 21.2007C42.5926 21.0407 42.2928 20.9081 41.9854 20.8034L41.8241 21.2766C42.1034 21.3718 42.3769 21.4926 42.6447 21.6393L42.8848 21.2007ZM41.9871 20.8039C41.6791 20.6965 41.3811 20.64 41.0948 20.64V21.14C41.3151 21.14 41.5571 21.1835 41.8224 21.276L41.9871 20.8039ZM41.0948 20.64C40.7509 20.64 40.4474 20.7091 40.2109 20.8755L40.4986 21.2845C40.6221 21.1976 40.8119 21.14 41.0948 21.14V20.64ZM40.2109 20.8755C39.9536 21.0566 39.8348 21.3295 39.8348 21.65H40.3348C40.3348 21.4639 40.396 21.3567 40.4986 21.2845L40.2109 20.8755ZM39.8348 21.65C39.8348 21.8951 39.9317 22.1118 40.1037 22.2924L40.4658 21.9476C40.3712 21.8482 40.3348 21.7515 40.3348 21.65H39.8348ZM40.1124 22.301C40.274 22.4549 40.4724 22.5883 40.703 22.7036L40.9266 22.2564C40.7305 22.1583 40.5756 22.0517 40.4572 21.939L40.1124 22.301ZM40.7057 22.705C40.933 22.8152 41.167 22.915 41.4077 23.0044L41.5818 22.5356C41.3558 22.4517 41.1365 22.3582 40.9238 22.255L40.7057 22.705ZM41.407 23.0041C41.6088 23.0798 41.808 23.1714 42.0046 23.2792L42.245 22.8408C42.0282 22.7219 41.8074 22.6202 41.5825 22.5359L41.407 23.0041ZM42.013 23.2836C42.2026 23.3784 42.3706 23.4993 42.518 23.6468L42.8715 23.2932C42.6856 23.1073 42.4736 22.9549 42.2366 22.8364L42.013 23.2836ZM42.5216 23.6503C42.6593 23.7825 42.7743 23.9549 42.8631 24.1739L43.3265 23.9861C43.2152 23.7117 43.0635 23.4775 42.8679 23.2897L42.5216 23.6503ZM42.864 24.1762C42.9476 24.3769 42.9948 24.6385 42.9948 24.97H43.4948C43.4948 24.5948 43.4419 24.2631 43.3255 23.9838L42.864 24.1762ZM42.9948 24.97C42.9948 25.2977 42.9106 25.5997 42.7408 25.8807L43.1687 26.1393C43.3856 25.7803 43.4948 25.389 43.4948 24.97H42.9948ZM42.7408 25.8807C42.5736 26.1574 42.3258 26.388 41.9867 26.5696L42.2228 27.0104C42.6304 26.792 42.9492 26.5026 43.1687 26.1393L42.7408 25.8807ZM41.9898 26.568C41.661 26.7382 41.243 26.83 40.7248 26.83V27.33C41.2998 27.33 41.8018 27.2284 42.2197 27.012L41.9898 26.568ZM40.7248 26.83C40.4607 26.83 40.189 26.8049 39.9095 26.754L39.82 27.246C40.1272 27.3018 40.4288 27.33 40.7248 27.33V26.83ZM39.916 26.7553C39.6443 26.6984 39.3752 26.6162 39.1086 26.5083L38.921 26.9717C39.2143 27.0905 39.5119 27.1816 39.8135 27.2447L39.916 26.7553ZM39.1132 26.5102C38.8492 26.3971 38.5938 26.2553 38.3471 26.0845L38.0625 26.4955C38.3357 26.6847 38.6203 26.8429 38.9163 26.9698L39.1132 26.5102ZM38.4223 26.4132L39.0623 25.2832L38.6272 25.0368L37.9872 26.1668L38.4223 26.4132ZM38.6973 25.3618C38.8823 25.4971 39.081 25.6176 39.293 25.7236L39.5166 25.2764C39.3285 25.1824 39.1539 25.0762 38.9923 24.9582L38.6973 25.3618ZM39.3019 25.7278C39.5208 25.8267 39.7409 25.9049 39.9623 25.9621L40.0872 25.4779C39.8953 25.4284 39.7021 25.36 39.5077 25.2722L39.3019 25.7278ZM39.9623 25.9621C40.1849 26.0195 40.3962 26.05 40.5948 26.05V25.55C40.4467 25.55 40.278 25.5272 40.0872 25.4779L39.9623 25.9621ZM40.5948 26.05C40.7908 26.05 40.986 26.0236 41.1798 25.9714L41.0498 25.4886C40.8969 25.5298 40.7454 25.55 40.5948 25.55V26.05ZM41.1858 25.9697C41.4021 25.9056 41.589 25.7979 41.7365 25.6417L41.373 25.2983C41.2939 25.3821 41.1874 25.4477 41.0437 25.4903L41.1858 25.9697ZM41.7315 25.6468C41.9098 25.4686 41.9848 25.2317 41.9848 24.97H41.4848C41.4848 25.135 41.4398 25.2314 41.378 25.2932L41.7315 25.6468ZM41.9848 24.97C41.9848 24.7609 41.9116 24.5717 41.7768 24.41L41.3927 24.73C41.4579 24.8083 41.4848 24.8858 41.4848 24.97H41.9848ZM41.7821 24.4165C41.6654 24.2664 41.5095 24.1373 41.3234 24.0256L41.0661 24.4544C41.2134 24.5427 41.3175 24.6336 41.3874 24.7235L41.7821 24.4165ZM41.3273 24.028C41.1522 23.9186 40.9606 23.8248 40.7534 23.7463L40.5761 24.2137C40.7556 24.2818 40.9174 24.3614 41.0623 24.452L41.3273 24.028ZM40.7541 23.7465C40.5338 23.6623 40.3063 23.5648 40.0715 23.4539L39.858 23.9061C40.1032 24.0219 40.3424 24.1244 40.5755 24.2135L40.7541 23.7465ZM40.0715 23.4539C39.8468 23.3478 39.6347 23.2199 39.4348 23.07L39.1348 23.47C39.3615 23.6401 39.6027 23.7855 39.858 23.9061L40.0715 23.4539ZM39.4417 23.0754C39.2609 22.9296 39.1116 22.7514 38.9933 22.5386L38.5562 22.7814C38.7046 23.0486 38.8953 23.277 39.1278 23.4646L39.4417 23.0754ZM38.9972 22.5458C38.8929 22.3428 38.8348 22.0842 38.8348 21.76H38.3348C38.3348 22.1425 38.4033 22.4838 38.5524 22.7742L38.9972 22.5458ZM38.8348 21.76C38.8348 21.3706 38.9196 21.0464 39.0795 20.778L38.65 20.522C38.4366 20.8802 38.3348 21.296 38.3348 21.76H38.8348ZM39.0775 20.7813C39.2457 20.5088 39.4809 20.2924 39.79 20.1319L39.5596 19.6881C39.1753 19.8876 38.8705 20.1646 38.652 20.5187L39.0775 20.7813ZM39.7933 20.1301C40.1021 19.9638 40.4643 19.8684 40.8858 19.8498L40.8637 19.3502C40.3785 19.3716 39.9408 19.4828 39.5562 19.6899L39.7933 20.1301ZM40.8748 19.85C41.4516 19.85 41.8981 19.9185 42.2256 20.0436L42.4039 19.5764C41.9981 19.4215 41.4846 19.35 40.8748 19.35V19.85ZM42.227 20.0441C42.5851 20.1784 42.9014 20.337 43.1772 20.5187L43.4523 20.1013C43.1415 19.8964 42.7911 19.7216 42.4025 19.5759L42.227 20.0441ZM43.0908 20.199L42.5408 21.309L42.9888 21.531L43.5388 20.421L43.0908 20.199ZM44.2548 24.1V23.85H44.0048V24.1H44.2548ZM46.1348 24.1H46.3848V23.85H46.1348V24.1ZM46.1348 25.32V25.57H46.3848V25.32H46.1348ZM44.2548 25.32H44.0048V25.57H44.2548V25.32ZM44.2548 24.35H46.1348V23.85H44.2548V24.35ZM45.8848 24.1V25.32H46.3848V24.1H45.8848ZM46.1348 25.07H44.2548V25.57H46.1348V25.07ZM44.5048 25.32V24.1H44.0048V25.32H44.5048ZM53.6915 26.26L53.8747 26.4301L53.9415 26.3582V26.26H53.6915ZM53.2815 26.55L53.3933 26.7737L53.3995 26.7704L53.2815 26.55ZM52.6315 26.81L52.5544 26.5722L52.5524 26.5728L52.6315 26.81ZM51.8915 27L51.8462 26.7541L51.84 26.7554L51.8915 27ZM49.5515 26.82L49.4637 27.0541L49.4666 27.0551L49.5515 26.82ZM48.3215 26.08L48.1501 26.2621L48.1521 26.2638L48.3215 26.08ZM47.5415 24.95L47.7724 24.8541L47.7724 24.8541L47.5415 24.95ZM47.5715 21.78L47.3404 21.6845L47.3398 21.6861L47.5715 21.78ZM48.4015 20.54L48.5729 20.7219L48.573 20.7218L48.4015 20.54ZM49.6115 19.8L49.5294 19.5639L49.5283 19.5643L49.6115 19.8ZM52.3515 19.72L52.286 19.9613L52.2899 19.9623L52.3515 19.72ZM53.3515 20.1L53.5876 20.1822L53.6564 19.9844L53.4738 19.882L53.3515 20.1ZM52.8815 21.45L52.7601 21.6685L53.0199 21.8129L53.1176 21.5322L52.8815 21.45ZM52.4015 21.25L52.4805 21.0128L52.4805 21.0128L52.4015 21.25ZM51.7915 21.09L51.7364 21.334L51.744 21.3354L51.7915 21.09ZM50.1815 21.17L50.259 21.4077L50.259 21.4077L50.1815 21.17ZM49.4015 21.62L49.2305 21.4376L49.2276 21.4403L49.4015 21.62ZM48.9315 22.37L49.1664 22.4554L49.167 22.4538L48.9315 22.37ZM48.9515 24.34L48.7217 24.4385L48.7226 24.4405L48.9515 24.34ZM49.4515 25.04L49.2836 25.2253L49.2865 25.2278L49.4515 25.04ZM50.2215 25.48L50.1408 25.7166L50.1424 25.7172L50.2215 25.48ZM51.7815 25.59L51.8195 25.8373L51.8287 25.8355L51.7815 25.59ZM52.2215 25.44L52.3429 25.6585L52.4715 25.5871V25.44H52.2215ZM52.2215 24.55H52.4715V24.3H52.2215V24.55ZM50.9515 24.55H50.7015V24.8H50.9515V24.55ZM50.9515 23.15V22.9H50.7015V23.15H50.9515ZM53.6915 23.15H53.9415V22.9H53.6915V23.15ZM53.5083 26.0899C53.4488 26.154 53.3396 26.2352 53.1634 26.3296L53.3995 26.7704C53.5967 26.6648 53.7609 26.5527 53.8747 26.4301L53.5083 26.0899ZM53.1697 26.3264C52.9965 26.413 52.7919 26.4952 52.5544 26.5722L52.7086 27.0478C52.9645 26.9648 53.1931 26.8737 53.3933 26.7736L53.1697 26.3264ZM52.5524 26.5728C52.3237 26.6491 52.0883 26.7095 51.8462 26.7541L51.9368 27.2459C52.2013 27.1971 52.4593 27.1309 52.7105 27.0472L52.5524 26.5728ZM51.84 26.7554C51.6012 26.8056 51.3786 26.83 51.1715 26.83V27.33C51.4177 27.33 51.6751 27.301 51.943 27.2446L51.84 26.7554ZM51.1715 26.83C50.5955 26.83 50.0848 26.7468 49.6364 26.5849L49.4666 27.0551C49.9781 27.2399 50.5475 27.33 51.1715 27.33V26.83ZM49.6393 26.5859C49.1862 26.416 48.8047 26.1854 48.4909 25.8962L48.1521 26.2638C48.5182 26.6013 48.9568 26.864 49.4637 27.0541L49.6393 26.5859ZM48.4928 25.8979C48.1787 25.6023 47.9389 25.255 47.7724 24.8541L47.3106 25.0459C47.5041 25.5117 47.7843 25.9177 48.1501 26.262L48.4928 25.8979ZM47.7724 24.8541C47.6061 24.4539 47.5215 24.0135 47.5215 23.53H47.0215C47.0215 24.0731 47.1168 24.5794 47.3106 25.0459L47.7724 24.8541ZM47.5215 23.53C47.5215 22.8807 47.618 22.3307 47.8032 21.8739L47.3398 21.6861C47.125 22.216 47.0215 22.8327 47.0215 23.53H47.5215ZM47.8025 21.8755C47.9975 21.4038 48.2553 21.0212 48.5729 20.7219L48.23 20.3581C47.8543 20.7121 47.5588 21.1562 47.3404 21.6845L47.8025 21.8755ZM48.573 20.7218C48.9013 20.4122 49.2746 20.184 49.6947 20.0357L49.5283 19.5643C49.0417 19.736 48.6084 20.0011 48.2299 20.3582L48.573 20.7218ZM49.6936 20.0361C50.1265 19.8856 50.5787 19.81 51.0515 19.81V19.31C50.5243 19.31 50.0165 19.3944 49.5294 19.5639L49.6936 20.0361ZM51.0515 19.81C51.5062 19.81 51.9172 19.8612 52.2861 19.9613L52.4169 19.4787C51.9991 19.3654 51.5434 19.31 51.0515 19.31V19.81ZM52.2899 19.9623C52.6679 20.0584 52.9796 20.178 53.2292 20.318L53.4738 19.882C53.1767 19.7153 52.8218 19.5816 52.4131 19.4777L52.2899 19.9623ZM53.1154 20.0178L52.6454 21.3678L53.1176 21.5322L53.5876 20.1822L53.1154 20.0178ZM53.0029 21.2315C52.8642 21.1544 52.6883 21.0821 52.4805 21.0128L52.3224 21.4872C52.5147 21.5512 52.6587 21.6122 52.7601 21.6685L53.0029 21.2315ZM52.4805 21.0128C52.2702 20.9427 52.0564 20.8866 51.839 20.8446L51.744 21.3354C51.9399 21.3734 52.1327 21.4239 52.3224 21.4872L52.4805 21.0128ZM51.8466 20.8461C51.6273 20.7966 51.4249 20.77 51.2415 20.77V21.27C51.3781 21.27 51.5424 21.29 51.7364 21.3339L51.8466 20.8461ZM51.2415 20.77C50.8212 20.77 50.4408 20.8225 50.104 20.9323L50.259 21.4077C50.5355 21.3175 50.8618 21.27 51.2415 21.27V20.77ZM50.104 20.9323C49.7661 21.0425 49.4732 21.2101 49.2305 21.4376L49.5725 21.8024C49.7564 21.6299 49.9835 21.4975 50.259 21.4077L50.104 20.9323ZM49.2276 21.4403C48.9904 21.6699 48.8141 21.9539 48.6959 22.2862L49.167 22.4538C49.2622 22.1861 49.3992 21.9701 49.5753 21.7996L49.2276 21.4403ZM48.6965 22.2846C48.5777 22.6114 48.5215 22.9848 48.5215 23.4H49.0215C49.0215 23.0285 49.0719 22.7153 49.1664 22.4554L48.6965 22.2846ZM48.5215 23.4C48.5215 23.7759 48.5866 24.1234 48.7217 24.4385L49.1813 24.2415C49.0763 23.9966 49.0215 23.7175 49.0215 23.4H48.5215ZM48.7226 24.4405C48.8562 24.7448 49.0432 25.0074 49.2836 25.2252L49.6194 24.8548C49.4331 24.6859 49.2868 24.4818 49.1804 24.2395L48.7226 24.4405ZM49.2865 25.2278C49.5325 25.444 49.8183 25.6067 50.1408 25.7166L50.3022 25.2434C50.038 25.1533 49.8105 25.0226 49.6165 24.8522L49.2865 25.2278ZM50.1424 25.7172C50.4712 25.8268 50.8283 25.88 51.2115 25.88V25.38C50.8747 25.38 50.5718 25.3332 50.3005 25.2428L50.1424 25.7172ZM51.2115 25.88C51.4287 25.88 51.6316 25.866 51.8195 25.8371L51.7435 25.3429C51.5847 25.3673 51.4076 25.38 51.2115 25.38V25.88ZM51.8287 25.8355C52.021 25.7985 52.1942 25.7411 52.3429 25.6585L52.1001 25.2215C52.0088 25.2722 51.8886 25.3148 51.7343 25.3445L51.8287 25.8355ZM52.4715 25.44V24.55H51.9715V25.44H52.4715ZM52.2215 24.3H50.9515V24.8H52.2215V24.3ZM51.2015 24.55V23.15H50.7015V24.55H51.2015ZM50.9515 23.4H53.6915V22.9H50.9515V23.4ZM53.4415 23.15V26.26H53.9415V23.15H53.4415ZM55.1787 21.89L55.4086 21.9881L55.4086 21.9881L55.1787 21.89ZM55.9787 20.69L55.8002 20.5149L55.8002 20.5149L55.9787 20.69ZM57.1787 19.86L57.0778 19.6313L57.0778 19.6313L57.1787 19.86ZM60.0887 19.86L60.1896 19.6313L60.1896 19.6313L60.0887 19.86ZM61.2887 20.69L61.1102 20.8651L61.1136 20.8685L61.2887 20.69ZM62.1087 21.89L61.8787 21.9881L61.8799 21.9909L62.1087 21.89ZM62.1087 24.79L61.8799 24.6891L61.8787 24.6919L62.1087 24.79ZM61.2887 25.99L61.4637 26.1685L61.4638 26.1685L61.2887 25.99ZM60.0887 26.79L60.1867 27.02L60.1867 27.02L60.0887 26.79ZM57.1787 26.79L57.2767 26.56L57.2767 26.56L57.1787 26.79ZM55.9787 25.99L55.8002 26.1651L55.8036 26.1685L55.9787 25.99ZM55.1787 24.79L55.4086 24.6919L55.4086 24.6919L55.1787 24.79ZM56.5587 24.25L56.3261 24.342L56.3289 24.3485L56.5587 24.25ZM57.0487 25L56.8664 25.1713L56.8719 25.1768L57.0487 25ZM57.7787 25.5L57.6782 25.7289L57.6802 25.7298L57.7787 25.5ZM59.5587 25.5L59.4582 25.2711L59.4561 25.272L59.5587 25.5ZM60.2687 25L60.4511 25.171L60.4537 25.1682L60.2687 25ZM60.7387 24.25L60.9704 24.3438L60.9712 24.3419L60.7387 24.25ZM60.7287 22.4L60.4961 22.4919L60.4981 22.4965L60.7287 22.4ZM60.2487 21.65L60.0636 21.8183L60.0691 21.8239L60.2487 21.65ZM59.5387 21.14L59.4382 21.3689L59.5387 21.14ZM57.0387 21.65L57.2183 21.824L57.2209 21.8212L57.0387 21.65ZM56.5587 22.4L56.7912 22.4919L56.7912 22.4919L56.5587 22.4ZM55.1387 23.33C55.1387 22.8561 55.2289 22.4095 55.4086 21.9881L54.9487 21.7919C54.7418 22.2771 54.6387 22.7906 54.6387 23.33H55.1387ZM55.4086 21.9881C55.5899 21.5629 55.8393 21.1891 56.1572 20.8651L55.8002 20.5149C55.4381 20.8842 55.1541 21.3104 54.9487 21.7919L55.4086 21.9881ZM56.1571 20.8651C56.4816 20.5344 56.8552 20.2759 57.2796 20.0887L57.0778 19.6313C56.5954 19.8441 56.1691 20.1389 55.8002 20.5149L56.1571 20.8651ZM57.2796 20.0887C57.6996 19.9034 58.1517 19.81 58.6387 19.81V19.31C58.0857 19.31 57.5645 19.4166 57.0778 19.6313L57.2796 20.0887ZM58.6387 19.81C59.1185 19.81 59.5674 19.9033 59.9878 20.0887L60.1896 19.6313C59.7033 19.4167 59.1855 19.31 58.6387 19.31V19.81ZM59.9878 20.0887C60.4121 20.2759 60.7858 20.5344 61.1102 20.8651L61.4671 20.5149C61.0982 20.1389 60.6719 19.8441 60.1896 19.6313L59.9878 20.0887ZM61.1136 20.8685C61.4436 21.1923 61.6983 21.565 61.8787 21.9881L62.3386 21.7919C62.1324 21.3083 61.8404 20.8811 61.4638 20.5115L61.1136 20.8685ZM61.8799 21.9909C62.0656 22.4117 62.1587 22.8573 62.1587 23.33H62.6587C62.6587 22.7894 62.5517 22.2749 62.3374 21.7891L61.8799 21.9909ZM62.1587 23.33C62.1587 23.817 62.0652 24.2691 61.8799 24.6891L62.3374 24.8909C62.5521 24.4042 62.6587 23.883 62.6587 23.33H62.1587ZM61.8787 24.6919C61.6983 25.115 61.4436 25.4877 61.1136 25.8115L61.4638 26.1685C61.8404 25.7989 62.1324 25.3717 62.3386 24.8881L61.8787 24.6919ZM61.1136 25.8115C60.7895 26.1294 60.4157 26.3787 59.9906 26.56L60.1867 27.02C60.6683 26.8146 61.0945 26.5306 61.4637 26.1685L61.1136 25.8115ZM59.9906 26.56C59.5696 26.7396 59.1197 26.83 58.6387 26.83V27.33C59.1843 27.33 59.7011 27.2271 60.1867 27.02L59.9906 26.56ZM58.6387 26.83C58.1505 26.83 57.6974 26.7394 57.2767 26.56L57.0806 27.02C57.5666 27.2272 58.0869 27.33 58.6387 27.33V26.83ZM57.2767 26.56C56.8516 26.3787 56.4778 26.1294 56.1537 25.8115L55.8036 26.1685C56.1729 26.5306 56.5991 26.8146 57.0806 27.02L57.2767 26.56ZM56.1572 25.8149C55.8393 25.4908 55.5899 25.1171 55.4086 24.6919L54.9487 24.8881C55.1541 25.3696 55.4381 25.7958 55.8002 26.1651L56.1572 25.8149ZM55.4086 24.6919C55.2292 24.2713 55.1387 23.8182 55.1387 23.33H54.6387C54.6387 23.8818 54.7414 24.402 54.9487 24.8881L55.4086 24.6919ZM56.1387 23.33C56.1387 23.6862 56.2006 24.0243 56.3262 24.3419L56.7912 24.1581C56.6901 23.9024 56.6387 23.6271 56.6387 23.33H56.1387ZM56.3289 24.3485C56.4603 24.655 56.6396 24.9297 56.8665 25.1712L57.2309 24.8288C57.0444 24.6303 56.8971 24.405 56.7885 24.1515L56.3289 24.3485ZM56.8719 25.1768C57.107 25.4118 57.3761 25.5963 57.6782 25.7289L57.8792 25.2711C57.6346 25.1637 57.4171 25.0148 57.2254 24.8232L56.8719 25.1768ZM57.6802 25.7298C57.9935 25.8641 58.3306 25.93 58.6887 25.93V25.43C58.3934 25.43 58.1238 25.3759 57.8772 25.2702L57.6802 25.7298ZM58.6887 25.93C59.0348 25.93 59.3601 25.8635 59.6613 25.728L59.4561 25.272C59.2239 25.3765 58.9692 25.43 58.6887 25.43V25.93ZM59.6592 25.7289C59.9628 25.5956 60.2275 25.4095 60.4511 25.171L60.0863 24.829C59.9099 25.0172 59.7012 25.1644 59.4582 25.2711L59.6592 25.7289ZM60.4537 25.1682C60.6738 24.926 60.8462 24.6507 60.9704 24.3438L60.5069 24.1562C60.4045 24.4093 60.2635 24.634 60.0837 24.8318L60.4537 25.1682ZM60.9712 24.3419C61.0967 24.0243 61.1587 23.6862 61.1587 23.33H60.6587C60.6587 23.6271 60.6073 23.9024 60.5062 24.1581L60.9712 24.3419ZM61.1587 23.33C61.1587 22.966 61.093 22.6229 60.9593 22.3035L60.4981 22.4965C60.6044 22.7505 60.6587 23.0274 60.6587 23.33H61.1587ZM60.9612 22.3081C60.8362 21.992 60.6586 21.7139 60.4282 21.4761L60.0691 21.8239C60.2521 22.0128 60.3945 22.2346 60.4962 22.4919L60.9612 22.3081ZM60.4337 21.4818C60.21 21.2358 59.9445 21.0451 59.6392 20.9111L59.4382 21.3689C59.6795 21.4749 59.8874 21.6242 60.0637 21.8182L60.4337 21.4818ZM59.6392 20.9111C59.3319 20.7762 59.0007 20.71 58.6487 20.71V21.21C58.9366 21.21 59.1988 21.2638 59.4382 21.3689L59.6392 20.9111ZM58.6487 20.71C58.2966 20.71 57.9654 20.7762 57.6582 20.9111L57.8592 21.3689C58.0986 21.2638 58.3607 21.21 58.6487 21.21V20.71ZM57.6582 20.9111C57.3536 21.0448 57.0859 21.2346 56.8565 21.4788L57.2209 21.8212C57.4047 21.6254 57.617 21.4752 57.8592 21.3689L57.6582 20.9111ZM56.8591 21.4761C56.6287 21.7139 56.4511 21.992 56.3262 22.3081L56.7912 22.4919C56.8929 22.2346 57.0353 22.0128 57.2182 21.8239L56.8591 21.4761ZM56.3262 22.3081C56.2004 22.6263 56.1387 22.9678 56.1387 23.33H56.6387C56.6387 23.0256 56.6903 22.747 56.7912 22.4919L56.3262 22.3081Z" fill="black" mask="url(#path-2-outside-1_147_258)"/>
</svg>
